<mxfile host="app.diagrams.net" modified="2020-09-03T07:08:07.823Z" agent="5.0 (Windows NT 10.0; Win64; x64) AppleWebKit/537.36 (KHTML, like Gecko) Chrome/84.0.4147.125 Safari/537.36" etag="yJnaKkswxZkKPUdqCzWG" version="13.6.6" type="github">
  <diagram id="C5RBs43oDa-KdzZeNtuy" name="Page-1">
    <mxGraphModel dx="782" dy="2775" grid="1" gridSize="10" guides="1" tooltips="1" connect="1" arrows="1" fold="1" page="1" pageScale="1" pageWidth="827" pageHeight="1169" math="0" shadow="0">
      <root>
        <mxCell id="WIyWlLk6GJQsqaUBKTNV-0" />
        <mxCell id="WIyWlLk6GJQsqaUBKTNV-1" parent="WIyWlLk6GJQsqaUBKTNV-0" />
        <mxCell id="DpAunE_y0u3pqvnu4Qd6-0" value="&lt;h1&gt;RaSTA Protocol&lt;/h1&gt;&lt;p&gt;This protocol is used for communication between Server and client.&lt;/p&gt;" style="text;html=1;strokeColor=none;fillColor=none;spacing=5;spacingTop=-20;whiteSpace=wrap;overflow=hidden;rounded=0;" parent="WIyWlLk6GJQsqaUBKTNV-1" vertex="1">
          <mxGeometry x="10" y="-1600" width="190" height="120" as="geometry" />
        </mxCell>
        <mxCell id="DpAunE_y0u3pqvnu4Qd6-2" value="Application" style="swimlane;fontStyle=0;childLayout=stackLayout;horizontal=1;startSize=26;fillColor=none;horizontalStack=0;resizeParent=1;resizeParentMax=0;resizeLast=0;collapsible=1;marginBottom=0;" parent="WIyWlLk6GJQsqaUBKTNV-1" vertex="1">
          <mxGeometry x="70" y="-1480" width="140" height="104" as="geometry" />
        </mxCell>
        <mxCell id="DpAunE_y0u3pqvnu4Qd6-3" value="Logger" style="text;strokeColor=none;fillColor=none;align=left;verticalAlign=top;spacingLeft=4;spacingRight=4;overflow=hidden;rotatable=0;points=[[0,0.5],[1,0.5]];portConstraint=eastwest;" parent="DpAunE_y0u3pqvnu4Qd6-2" vertex="1">
          <mxGeometry y="26" width="140" height="26" as="geometry" />
        </mxCell>
        <mxCell id="DpAunE_y0u3pqvnu4Qd6-4" value="CommandLineHandler" style="text;strokeColor=none;fillColor=none;align=left;verticalAlign=top;spacingLeft=4;spacingRight=4;overflow=hidden;rotatable=0;points=[[0,0.5],[1,0.5]];portConstraint=eastwest;" parent="DpAunE_y0u3pqvnu4Qd6-2" vertex="1">
          <mxGeometry y="52" width="140" height="26" as="geometry" />
        </mxCell>
        <mxCell id="DpAunE_y0u3pqvnu4Qd6-5" value="ConfigSettingÂ " style="text;strokeColor=none;fillColor=none;align=left;verticalAlign=top;spacingLeft=4;spacingRight=4;overflow=hidden;rotatable=0;points=[[0,0.5],[1,0.5]];portConstraint=eastwest;" parent="DpAunE_y0u3pqvnu4Qd6-2" vertex="1">
          <mxGeometry y="78" width="140" height="26" as="geometry" />
        </mxCell>
        <mxCell id="DpAunE_y0u3pqvnu4Qd6-24" value="Transport Layer" style="html=1;" parent="WIyWlLk6GJQsqaUBKTNV-1" vertex="1">
          <mxGeometry x="620" y="-1490" width="110" height="50" as="geometry" />
        </mxCell>
        <mxCell id="DpAunE_y0u3pqvnu4Qd6-29" value="" style="endArrow=classic;startArrow=classic;html=1;exitX=1.019;exitY=0.122;exitDx=0;exitDy=0;exitPerimeter=0;entryX=0;entryY=0.25;entryDx=0;entryDy=0;" parent="WIyWlLk6GJQsqaUBKTNV-1" source="DpAunE_y0u3pqvnu4Qd6-2" target="DpAunE_y0u3pqvnu4Qd6-7" edge="1">
          <mxGeometry width="50" height="50" relative="1" as="geometry">
            <mxPoint x="360" y="-1430" as="sourcePoint" />
            <mxPoint x="410" y="-1480" as="targetPoint" />
          </mxGeometry>
        </mxCell>
        <mxCell id="DpAunE_y0u3pqvnu4Qd6-7" value="RastaStack" style="swimlane;fontStyle=0;childLayout=stackLayout;horizontal=1;startSize=26;fillColor=none;horizontalStack=0;resizeParent=1;resizeParentMax=0;resizeLast=0;collapsible=1;marginBottom=0;" parent="WIyWlLk6GJQsqaUBKTNV-1" vertex="1">
          <mxGeometry x="330" y="-1480" width="140" height="52" as="geometry" />
        </mxCell>
        <mxCell id="DpAunE_y0u3pqvnu4Qd6-8" value="RastaBox" style="text;strokeColor=none;fillColor=none;align=left;verticalAlign=top;spacingLeft=4;spacingRight=4;overflow=hidden;rotatable=0;points=[[0,0.5],[1,0.5]];portConstraint=eastwest;" parent="DpAunE_y0u3pqvnu4Qd6-7" vertex="1">
          <mxGeometry y="26" width="140" height="26" as="geometry" />
        </mxCell>
        <mxCell id="DpAunE_y0u3pqvnu4Qd6-30" value="" style="endArrow=classic;startArrow=classic;html=1;exitX=1;exitY=0.25;exitDx=0;exitDy=0;entryX=0;entryY=0.5;entryDx=0;entryDy=0;" parent="WIyWlLk6GJQsqaUBKTNV-1" source="DpAunE_y0u3pqvnu4Qd6-7" target="DpAunE_y0u3pqvnu4Qd6-24" edge="1">
          <mxGeometry width="50" height="50" relative="1" as="geometry">
            <mxPoint x="500" y="-1400" as="sourcePoint" />
            <mxPoint x="550" y="-1450" as="targetPoint" />
            <Array as="points" />
          </mxGeometry>
        </mxCell>
        <mxCell id="DpAunE_y0u3pqvnu4Qd6-15" value="RastaBox" style="swimlane;fontStyle=0;childLayout=stackLayout;horizontal=1;startSize=26;fillColor=none;horizontalStack=0;resizeParent=1;resizeParentMax=0;resizeLast=0;collapsible=1;marginBottom=0;" parent="WIyWlLk6GJQsqaUBKTNV-1" vertex="1">
          <mxGeometry x="340" y="-1360" width="140" height="52" as="geometry" />
        </mxCell>
        <mxCell id="DpAunE_y0u3pqvnu4Qd6-16" value="Red Layer" style="text;strokeColor=none;fillColor=none;align=left;verticalAlign=top;spacingLeft=4;spacingRight=4;overflow=hidden;rotatable=0;points=[[0,0.5],[1,0.5]];portConstraint=eastwest;" parent="DpAunE_y0u3pqvnu4Qd6-15" vertex="1">
          <mxGeometry y="26" width="140" height="26" as="geometry" />
        </mxCell>
        <mxCell id="DpAunE_y0u3pqvnu4Qd6-11" value="RastaBox" style="swimlane;fontStyle=0;childLayout=stackLayout;horizontal=1;startSize=26;fillColor=none;horizontalStack=0;resizeParent=1;resizeParentMax=0;resizeLast=0;collapsible=1;marginBottom=0;" parent="WIyWlLk6GJQsqaUBKTNV-1" vertex="1">
          <mxGeometry x="520" y="-1360" width="140" height="52" as="geometry" />
        </mxCell>
        <mxCell id="DpAunE_y0u3pqvnu4Qd6-12" value="Sar layer" style="text;strokeColor=none;fillColor=none;align=left;verticalAlign=top;spacingLeft=4;spacingRight=4;overflow=hidden;rotatable=0;points=[[0,0.5],[1,0.5]];portConstraint=eastwest;" parent="DpAunE_y0u3pqvnu4Qd6-11" vertex="1">
          <mxGeometry y="26" width="140" height="26" as="geometry" />
        </mxCell>
        <mxCell id="DpAunE_y0u3pqvnu4Qd6-31" value="" style="endArrow=classic;startArrow=classic;html=1;exitX=0.457;exitY=-0.077;exitDx=0;exitDy=0;exitPerimeter=0;" parent="WIyWlLk6GJQsqaUBKTNV-1" source="DpAunE_y0u3pqvnu4Qd6-15" edge="1">
          <mxGeometry width="50" height="50" relative="1" as="geometry">
            <mxPoint x="360" y="-1440" as="sourcePoint" />
            <mxPoint x="404" y="-1430" as="targetPoint" />
            <Array as="points" />
          </mxGeometry>
        </mxCell>
        <mxCell id="DpAunE_y0u3pqvnu4Qd6-33" value="" style="endArrow=classic;startArrow=classic;html=1;entryX=0.552;entryY=0.974;entryDx=0;entryDy=0;entryPerimeter=0;" parent="WIyWlLk6GJQsqaUBKTNV-1" target="DpAunE_y0u3pqvnu4Qd6-8" edge="1">
          <mxGeometry width="50" height="50" relative="1" as="geometry">
            <mxPoint x="580" y="-1360" as="sourcePoint" />
            <mxPoint x="630" y="-1410" as="targetPoint" />
            <Array as="points">
              <mxPoint x="580" y="-1429" />
            </Array>
          </mxGeometry>
        </mxCell>
        <mxCell id="DpAunE_y0u3pqvnu4Qd6-38" value="&lt;h1&gt;Safety and Re-transmission Layer.&lt;br&gt;&lt;/h1&gt;&lt;p&gt;&lt;/p&gt;&lt;div style=&quot;text-align: justify ; font-size: 11px&quot;&gt;&lt;font style=&quot;font-size: 11px&quot;&gt;The purpose of this communication layer is to provide a safe communication mechanism in accordance with&lt;/font&gt;&lt;/div&gt;&lt;div style=&quot;text-align: justify ; font-size: 11px&quot;&gt;&lt;span&gt;&lt;font style=&quot;font-size: 11px&quot;&gt;DIN EN 50159 (VDE 0831-159) for networks of Category 1 and Category 2. In addition to that, it offers the&amp;nbsp;&lt;/font&gt;&lt;/span&gt;&lt;span&gt;retransmission of lost or distorted data within a defined period of time.&lt;/span&gt;&lt;/div&gt;&lt;p&gt;&lt;/p&gt;" style="text;html=1;strokeColor=none;fillColor=none;spacing=5;spacingTop=-20;whiteSpace=wrap;overflow=hidden;rounded=0;" parent="WIyWlLk6GJQsqaUBKTNV-1" vertex="1">
          <mxGeometry y="-1169" width="270" height="289" as="geometry" />
        </mxCell>
        <mxCell id="DpAunE_y0u3pqvnu4Qd6-34" value="SarLayer" style="swimlane;fontStyle=0;childLayout=stackLayout;horizontal=1;startSize=26;fillColor=#ffe6cc;horizontalStack=0;resizeParent=1;resizeParentMax=0;resizeLast=0;collapsible=1;marginBottom=0;strokeColor=#d79b00;" parent="WIyWlLk6GJQsqaUBKTNV-1" vertex="1">
          <mxGeometry x="50" y="-1000" width="220" height="308" as="geometry" />
        </mxCell>
        <mxCell id="DpAunE_y0u3pqvnu4Qd6-35" value="ConnectionRequestPacket 5.4.3" style="text;strokeColor=none;fillColor=none;align=left;verticalAlign=top;spacingLeft=4;spacingRight=4;overflow=hidden;rotatable=0;points=[[0,0.5],[1,0.5]];portConstraint=eastwest;" parent="DpAunE_y0u3pqvnu4Qd6-34" vertex="1">
          <mxGeometry y="26" width="220" height="26" as="geometry" />
        </mxCell>
        <mxCell id="DpAunE_y0u3pqvnu4Qd6-36" value="ConnectionResponsePacket 5.4.3" style="text;strokeColor=none;fillColor=none;align=left;verticalAlign=top;spacingLeft=4;spacingRight=4;overflow=hidden;rotatable=0;points=[[0,0.5],[1,0.5]];portConstraint=eastwest;" parent="DpAunE_y0u3pqvnu4Qd6-34" vertex="1">
          <mxGeometry y="52" width="220" height="26" as="geometry" />
        </mxCell>
        <mxCell id="DpAunE_y0u3pqvnu4Qd6-37" value="DataPacket 5.4.8" style="text;strokeColor=none;fillColor=none;align=left;verticalAlign=top;spacingLeft=4;spacingRight=4;overflow=hidden;rotatable=0;points=[[0,0.5],[1,0.5]];portConstraint=eastwest;" parent="DpAunE_y0u3pqvnu4Qd6-34" vertex="1">
          <mxGeometry y="78" width="220" height="26" as="geometry" />
        </mxCell>
        <mxCell id="tP5q4ZculjpRrV5emE7s-26" value="DisconnectionRequestPacket 5.4.6" style="text;strokeColor=none;fillColor=none;align=left;verticalAlign=top;spacingLeft=4;spacingRight=4;overflow=hidden;rotatable=0;points=[[0,0.5],[1,0.5]];portConstraint=eastwest;" vertex="1" parent="DpAunE_y0u3pqvnu4Qd6-34">
          <mxGeometry y="104" width="220" height="26" as="geometry" />
        </mxCell>
        <mxCell id="tP5q4ZculjpRrV5emE7s-27" value="ErrorCounter 5.5.5" style="text;strokeColor=none;fillColor=none;align=left;verticalAlign=top;spacingLeft=4;spacingRight=4;overflow=hidden;rotatable=0;points=[[0,0.5],[1,0.5]];portConstraint=eastwest;" vertex="1" parent="DpAunE_y0u3pqvnu4Qd6-34">
          <mxGeometry y="130" width="220" height="26" as="geometry" />
        </mxCell>
        <mxCell id="tP5q4ZculjpRrV5emE7s-28" value="HeartbeatPacket 5.4.2" style="text;strokeColor=none;fillColor=none;align=left;verticalAlign=top;spacingLeft=4;spacingRight=4;overflow=hidden;rotatable=0;points=[[0,0.5],[1,0.5]];portConstraint=eastwest;" vertex="1" parent="DpAunE_y0u3pqvnu4Qd6-34">
          <mxGeometry y="156" width="220" height="26" as="geometry" />
        </mxCell>
        <mxCell id="tP5q4ZculjpRrV5emE7s-29" value="RetransmissionRequestPacketÂ  5.4.2" style="text;strokeColor=none;fillColor=none;align=left;verticalAlign=top;spacingLeft=4;spacingRight=4;overflow=hidden;rotatable=0;points=[[0,0.5],[1,0.5]];portConstraint=eastwest;" vertex="1" parent="DpAunE_y0u3pqvnu4Qd6-34">
          <mxGeometry y="182" width="220" height="26" as="geometry" />
        </mxCell>
        <mxCell id="tP5q4ZculjpRrV5emE7s-30" value="RetransmissionResponsePacket 5.4.5" style="text;strokeColor=none;fillColor=none;align=left;verticalAlign=top;spacingLeft=4;spacingRight=4;overflow=hidden;rotatable=0;points=[[0,0.5],[1,0.5]];portConstraint=eastwest;" vertex="1" parent="DpAunE_y0u3pqvnu4Qd6-34">
          <mxGeometry y="208" width="220" height="26" as="geometry" />
        </mxCell>
        <mxCell id="tP5q4ZculjpRrV5emE7s-31" value="RetransmittedDataPacket 5.4.9" style="text;strokeColor=none;fillColor=none;align=left;verticalAlign=top;spacingLeft=4;spacingRight=4;overflow=hidden;rotatable=0;points=[[0,0.5],[1,0.5]];portConstraint=eastwest;" vertex="1" parent="DpAunE_y0u3pqvnu4Qd6-34">
          <mxGeometry y="234" width="220" height="26" as="geometry" />
        </mxCell>
        <mxCell id="tP5q4ZculjpRrV5emE7s-32" value="SARBasePacket 5.4.2 - 5.4.9" style="text;strokeColor=none;fillColor=none;align=left;verticalAlign=top;spacingLeft=4;spacingRight=4;overflow=hidden;rotatable=0;points=[[0,0.5],[1,0.5]];portConstraint=eastwest;" vertex="1" parent="DpAunE_y0u3pqvnu4Qd6-34">
          <mxGeometry y="260" width="220" height="26" as="geometry" />
        </mxCell>
        <mxCell id="tP5q4ZculjpRrV5emE7s-33" value="task data types" style="text;strokeColor=none;fillColor=none;align=left;verticalAlign=top;spacingLeft=4;spacingRight=4;overflow=hidden;rotatable=0;points=[[0,0.5],[1,0.5]];portConstraint=eastwest;" vertex="1" parent="DpAunE_y0u3pqvnu4Qd6-34">
          <mxGeometry y="286" width="220" height="22" as="geometry" />
        </mxCell>
        <mxCell id="tP5q4ZculjpRrV5emE7s-35" value="ConnectionRequestPacket" style="swimlane;fontStyle=1;align=center;verticalAlign=top;childLayout=stackLayout;horizontal=1;startSize=26;horizontalStack=0;resizeParent=1;resizeParentMax=0;resizeLast=0;collapsible=1;marginBottom=0;" vertex="1" parent="WIyWlLk6GJQsqaUBKTNV-1">
          <mxGeometry x="300" y="-1000" width="200" height="86" as="geometry" />
        </mxCell>
        <mxCell id="tP5q4ZculjpRrV5emE7s-36" value="+ field: type" style="text;strokeColor=none;fillColor=none;align=left;verticalAlign=top;spacingLeft=4;spacingRight=4;overflow=hidden;rotatable=0;points=[[0,0.5],[1,0.5]];portConstraint=eastwest;" vertex="1" parent="tP5q4ZculjpRrV5emE7s-35">
          <mxGeometry y="26" width="200" height="26" as="geometry" />
        </mxCell>
        <mxCell id="tP5q4ZculjpRrV5emE7s-37" value="" style="line;strokeWidth=1;fillColor=none;align=left;verticalAlign=middle;spacingTop=-1;spacingLeft=3;spacingRight=3;rotatable=0;labelPosition=right;points=[];portConstraint=eastwest;" vertex="1" parent="tP5q4ZculjpRrV5emE7s-35">
          <mxGeometry y="52" width="200" height="8" as="geometry" />
        </mxCell>
        <mxCell id="tP5q4ZculjpRrV5emE7s-38" value="+ method(type): type" style="text;strokeColor=none;fillColor=none;align=left;verticalAlign=top;spacingLeft=4;spacingRight=4;overflow=hidden;rotatable=0;points=[[0,0.5],[1,0.5]];portConstraint=eastwest;" vertex="1" parent="tP5q4ZculjpRrV5emE7s-35">
          <mxGeometry y="60" width="200" height="26" as="geometry" />
        </mxCell>
      </root>
    </mxGraphModel>
  </diagram>
</mxfile>
